<mxfile host="Electron" modified="2023-12-28T11:38:35.078Z" agent="Mozilla/5.0 (X11; Linux x86_64) AppleWebKit/537.36 (KHTML, like Gecko) draw.io/22.1.15 Chrome/120.0.6099.109 Electron/28.1.0 Safari/537.36" etag="t3UYaKz8ziZDWembifKa" version="22.1.15" type="device">
  <diagram name="Page-1" id="zlQOSkbKMADSZbKt96rF">
    <mxGraphModel dx="988" dy="565" grid="1" gridSize="10" guides="1" tooltips="1" connect="1" arrows="1" fold="1" page="1" pageScale="1" pageWidth="827" pageHeight="1169" math="0" shadow="0">
      <root>
        <mxCell id="0" />
        <mxCell id="1" parent="0" />
        <mxCell id="C-tiYA-gF6Or7lsKBZCW-1" value="" style="rounded=0;whiteSpace=wrap;html=1;fillColor=none;" parent="1" vertex="1">
          <mxGeometry x="280" y="120" width="160" height="420" as="geometry" />
        </mxCell>
        <mxCell id="C-tiYA-gF6Or7lsKBZCW-2" value="" style="endArrow=none;html=1;rounded=0;exitX=0.003;exitY=0.117;exitDx=0;exitDy=0;exitPerimeter=0;entryX=1.005;entryY=0.118;entryDx=0;entryDy=0;entryPerimeter=0;" parent="1" edge="1">
          <mxGeometry width="50" height="50" relative="1" as="geometry">
            <mxPoint x="280" y="160.00000000000006" as="sourcePoint" />
            <mxPoint x="440.32000000000005" y="160.42000000000002" as="targetPoint" />
          </mxGeometry>
        </mxCell>
        <mxCell id="C-tiYA-gF6Or7lsKBZCW-3" value="" style="endArrow=none;html=1;rounded=0;exitX=0.003;exitY=0.117;exitDx=0;exitDy=0;exitPerimeter=0;entryX=1.005;entryY=0.118;entryDx=0;entryDy=0;entryPerimeter=0;" parent="1" edge="1">
          <mxGeometry width="50" height="50" relative="1" as="geometry">
            <mxPoint x="279.68" y="280.00000000000006" as="sourcePoint" />
            <mxPoint x="440.00000000000006" y="280.42" as="targetPoint" />
          </mxGeometry>
        </mxCell>
        <mxCell id="C-tiYA-gF6Or7lsKBZCW-7" value="" style="endArrow=none;html=1;rounded=0;entryX=1;entryY=0.666;entryDx=0;entryDy=0;entryPerimeter=0;" parent="1" target="C-tiYA-gF6Or7lsKBZCW-1" edge="1">
          <mxGeometry width="50" height="50" relative="1" as="geometry">
            <mxPoint x="280" y="400" as="sourcePoint" />
            <mxPoint x="330" y="350" as="targetPoint" />
          </mxGeometry>
        </mxCell>
        <mxCell id="C-tiYA-gF6Or7lsKBZCW-8" value="RS. adresse" style="text;html=1;strokeColor=none;fillColor=none;align=center;verticalAlign=middle;whiteSpace=wrap;rounded=0;" parent="1" vertex="1">
          <mxGeometry x="320" y="120" width="60" height="30" as="geometry" />
        </mxCell>
        <mxCell id="C-tiYA-gF6Or7lsKBZCW-9" value=".&lt;br&gt;.&lt;br&gt;.&lt;br&gt;" style="text;html=1;strokeColor=none;fillColor=none;align=center;verticalAlign=middle;whiteSpace=wrap;rounded=0;" parent="1" vertex="1">
          <mxGeometry x="320" y="210" width="60" height="30" as="geometry" />
        </mxCell>
        <mxCell id="C-tiYA-gF6Or7lsKBZCW-10" value="payload" style="text;html=1;strokeColor=none;fillColor=none;align=center;verticalAlign=middle;whiteSpace=wrap;rounded=0;" parent="1" vertex="1">
          <mxGeometry x="320" y="330" width="60" height="30" as="geometry" />
        </mxCell>
        <mxCell id="C-tiYA-gF6Or7lsKBZCW-11" value="nop&lt;br&gt;nop&lt;br&gt;nop&lt;br&gt;nop&lt;br&gt;nop" style="text;html=1;strokeColor=none;fillColor=none;align=center;verticalAlign=middle;whiteSpace=wrap;rounded=0;" parent="1" vertex="1">
          <mxGeometry x="290" y="430" width="40" height="70" as="geometry" />
        </mxCell>
        <mxCell id="C-tiYA-gF6Or7lsKBZCW-14" value="&amp;nbsp;vuln" style="labelPosition=right;align=left;strokeWidth=1;shape=mxgraph.mockup.markup.curlyBrace;html=1;shadow=0;dashed=0;strokeColor=#999999;direction=south;" parent="1" vertex="1">
          <mxGeometry x="470" y="120" width="20" height="420" as="geometry" />
        </mxCell>
        <mxCell id="C-tiYA-gF6Or7lsKBZCW-16" value="" style="endArrow=classic;html=1;rounded=0;" parent="1" edge="1">
          <mxGeometry width="50" height="50" relative="1" as="geometry">
            <mxPoint x="160" y="539.31" as="sourcePoint" />
            <mxPoint x="250" y="539.31" as="targetPoint" />
          </mxGeometry>
        </mxCell>
        <mxCell id="C-tiYA-gF6Or7lsKBZCW-24" value="buffer" style="edgeLabel;html=1;align=center;verticalAlign=middle;resizable=0;points=[];" parent="C-tiYA-gF6Or7lsKBZCW-16" vertex="1" connectable="0">
          <mxGeometry x="-0.0966" y="-2" relative="1" as="geometry">
            <mxPoint y="-11" as="offset" />
          </mxGeometry>
        </mxCell>
        <mxCell id="OOKRXH5qCd8oDuDEU6MU-2" value="" style="endArrow=classic;html=1;rounded=0;exitX=-0.006;exitY=0.061;exitDx=0;exitDy=0;exitPerimeter=0;entryX=0.004;entryY=0.844;entryDx=0;entryDy=0;entryPerimeter=0;edgeStyle=orthogonalEdgeStyle;curved=1;" edge="1" parent="1" source="C-tiYA-gF6Or7lsKBZCW-1" target="C-tiYA-gF6Or7lsKBZCW-1">
          <mxGeometry width="50" height="50" relative="1" as="geometry">
            <mxPoint x="350" y="360" as="sourcePoint" />
            <mxPoint x="400" y="310" as="targetPoint" />
            <Array as="points">
              <mxPoint x="30" y="260" />
            </Array>
          </mxGeometry>
        </mxCell>
        <mxCell id="OOKRXH5qCd8oDuDEU6MU-3" value="" style="shape=mxgraph.sysml.x;fillColor=#a20025;fontColor=#ffffff;strokeColor=#6F0000;" vertex="1" parent="1">
          <mxGeometry x="330" y="115" width="40" height="40" as="geometry" />
        </mxCell>
        <mxCell id="OOKRXH5qCd8oDuDEU6MU-4" value="RS. adress of payload" style="text;html=1;align=center;verticalAlign=middle;resizable=0;points=[];autosize=1;strokeColor=none;fillColor=none;" vertex="1" parent="1">
          <mxGeometry x="290" y="80" width="140" height="30" as="geometry" />
        </mxCell>
      </root>
    </mxGraphModel>
  </diagram>
</mxfile>
